<?xml version="1.0" encoding="utf-8"?>
<!-- Generator: Adobe Illustrator 24.1.1, SVG Export Plug-In . SVG Version: 6.00 Build 0)  -->
<svg version="1.1" id="Layer_1" xmlns="http://www.w3.org/2000/svg" xmlns:xlink="http://www.w3.org/1999/xlink" x="0px" y="0px"
	 viewBox="0 0 306 344.4" style="enable-background:new 0 0 306 344.4;" xml:space="preserve">
<style type="text/css">
	.cpp0{fill:#00599C;}
	.cpp1{fill:#004482;}
	.cpp2{fill:#659AD2;}
	.cpp3{fill:#FFFFFF;}
</style>
<path class="cpp0" d="M289.5,251c2.2-3.8,3.6-8.1,3.6-12V105.3c0-3.9-1.4-8.1-3.6-12L153,172.2L289.5,251z"/>
<path class="cpp1" d="M165.1,327L281,260.1c3.3-1.9,6.4-5.3,8.6-9.1L153,172.2L16.5,251c2.2,3.8,5.2,7.1,8.6,9.1L140.9,327
	C147.5,330.8,158.5,330.8,165.1,327z"/>
<path class="cpp2" d="M289.6,93.3c-2.2-3.8-5.2-7.1-8.6-9.1L165.1,17.4c-6.7-3.9-17.6-3.9-24.3,0L25,84.3c-6.7,3.9-12.1,13.3-12.1,21
	v133.8c0,3.9,1.4,8.1,3.6,12L153,172.2L289.6,93.3z"/>
<g>
	<path class="cpp3" d="M153,265.6c-51.5,0-93.4-41.9-93.4-93.4s41.9-93.4,93.4-93.4c33.2,0,64.2,17.9,80.9,46.7l-40.4,23.4
		c-8.3-14.4-23.8-23.4-40.5-23.4c-25.8,0-46.7,21-46.7,46.7c0,25.8,21,46.7,46.7,46.7c16.6,0,32.1-9,40.5-23.4l40.4,23.4
		C217.2,247.7,186.2,265.6,153,265.6z"/>
</g>
<g>
	<polygon class="cpp3" points="246.4,167 236,167 236,156.6 225.7,156.6 225.7,167 215.3,167 215.3,177.4 225.7,177.4 225.7,187.7 
		236,187.7 236,177.4 246.4,177.4 	"/>
</g>
<g>
	<polygon class="cpp3" points="285.3,167 275,167 275,156.6 264.6,156.6 264.6,167 254.2,167 254.2,177.4 264.6,177.4 264.6,187.7 
		275,187.7 275,177.4 285.3,177.4 	"/>
</g>
</svg>
