<svg version="1.1" id="Layer_1" xmlns="http://www.w3.org/2000/svg" xmlns:xlink="http://www.w3.org/1999/xlink" x="0px" y="0px"
	 width="100%" viewBox="0 0 512 512" enable-background="new 0 0 512 512" xml:space="preserve">
<path fill="#CC0000" opacity="1.000000" stroke="none" 
	d="
M249.000000,513.000000 
	C166.020126,513.000000 83.540253,513.000000 1.030190,513.000000 
	C1.030190,342.395111 1.030190,171.790192 1.030190,1.092644 
	C171.563232,1.092644 342.126526,1.092644 512.844910,1.092644 
	C512.844910,171.666550 512.844910,342.333252 512.844910,513.000000 
	C425.123505,513.000000 337.311737,513.000000 249.000000,513.000000 
M188.897766,157.594574 
	C186.603363,157.388718 184.280411,157.345947 182.019272,156.950089 
	C169.076004,154.684067 156.365921,155.991837 143.956238,159.853043 
	C113.125000,169.445999 89.785728,189.582291 69.942451,214.061157 
	C53.013996,234.944321 41.429440,258.840973 33.626781,284.511810 
	C31.045582,293.003967 29.301876,301.750732 27.077383,310.778259 
	C59.551262,310.778259 90.630959,310.778259 121.997887,310.778259 
	C121.997887,309.762787 122.011826,308.964050 121.993591,308.165985 
	C121.978386,307.500793 121.993828,306.824432 121.879272,306.173492 
	C118.509315,287.024475 119.384209,268.013367 124.041985,249.195694 
	C136.318802,199.596695 184.188705,175.820282 228.638931,186.493301 
	C248.705750,191.311584 266.598633,200.654633 283.177277,212.699677 
	C286.225739,214.914505 288.778839,215.650620 291.439392,211.331970 
	C290.494446,210.595215 289.539886,209.926758 288.670288,209.161728 
	C270.356171,193.049591 250.474625,179.276688 228.115250,169.374832 
	C215.838409,163.938004 203.211731,159.406952 188.897766,157.594574 
M226.475189,288.014923 
	C225.361176,286.826874 224.247177,285.638824 223.035995,284.347168 
	C237.867706,280.196045 243.908600,270.075745 243.249664,252.906784 
	C242.586182,235.619339 230.149429,226.864059 220.203354,226.257782 
	C204.333511,225.290405 188.361526,225.999115 172.293274,225.999115 
	C172.293274,254.366074 172.293274,282.557251 172.293274,310.729309 
	C179.999741,310.729309 187.409714,310.729309 195.176239,310.729309 
	C195.176239,304.239960 195.176239,298.011017 195.176239,290.490662 
	C198.255295,293.646118 200.910873,295.711182 202.734406,298.351013 
	C210.284302,309.280640 220.484161,313.065887 233.454620,311.119537 
	C238.349304,310.385071 243.446548,311.000366 249.859619,311.000366 
	C241.462814,302.748779 234.220322,295.631531 226.475189,288.014923 
M278.000824,307.355591 
	C278.000824,303.613342 278.000824,299.871094 278.000824,296.239929 
	C285.690247,296.239929 292.629761,296.239929 300.014008,296.239929 
	C300.014008,301.170166 300.014008,305.910645 300.014008,310.759338 
	C307.859467,310.759338 315.252380,310.759338 322.965332,310.759338 
	C322.965332,289.254669 323.228424,267.984955 322.846283,246.726852 
	C322.673920,237.136047 315.629822,228.476486 306.179565,227.264679 
	C295.556274,225.902451 284.580780,225.365601 273.956177,226.434479 
	C261.462952,227.691360 254.818680,236.968735 254.736343,250.447128 
	C254.621475,269.253052 254.707214,288.060211 254.707092,306.866821 
	C254.707092,308.131561 254.707077,309.396301 254.707077,310.997803 
	C262.045868,310.997803 268.843384,311.087860 275.631683,310.879578 
	C276.446594,310.854553 277.211853,309.210632 278.000824,307.355591 
M457.615082,257.996948 
	C456.162689,257.996948 454.710327,257.996948 453.159790,257.996948 
	C453.159790,254.458832 453.159790,251.398071 453.159790,247.860016 
	C465.986450,247.860016 478.561432,247.860016 491.123413,247.860016 
	C491.123413,240.416977 491.123413,233.459656 491.123413,226.057907 
	C478.014282,226.057907 465.022339,225.442261 452.143127,226.378311 
	C447.374512,226.724869 442.375031,230.076385 438.354462,233.186768 
	C431.046448,238.840347 432.345245,247.433350 431.799408,255.534134 
	C430.788818,270.532288 444.602295,279.521606 455.576752,279.045685 
	C461.185028,278.802460 466.812561,279.003052 472.465942,279.003052 
	C472.465942,282.693298 472.465942,285.883392 472.465942,289.500183 
	C459.151306,289.500183 446.217407,289.500183 433.256714,289.500183 
	C433.256714,296.855042 433.256714,303.771393 433.256714,311.003021 
	C446.644196,311.003021 459.802185,311.511230 472.884735,310.739868 
	C477.762360,310.452271 483.283447,308.174927 487.080688,305.060699 
	C495.914215,297.816010 495.471252,287.493805 494.171021,277.196716 
	C492.730347,265.787689 484.549866,259.726471 475.061493,258.181976 
	C469.704834,257.310059 464.092834,258.006775 457.615082,257.996948 
M421.335327,289.000305 
	C411.592804,289.000305 401.850281,289.000305 391.704529,289.000305 
	C391.704529,267.563141 391.704529,246.839508 391.704529,226.358292 
	C383.541870,226.358292 375.802795,226.358292 368.320862,226.358292 
	C368.320862,254.765717 368.320862,282.814270 368.320862,310.654724 
	C387.406036,310.654724 406.131226,310.654724 424.999084,310.654724 
	C424.999084,304.158844 425.117645,298.002716 424.878387,291.860504 
	C424.839996,290.875397 423.202026,289.952606 421.335327,289.000305 
M357.983826,246.500183 
	C357.983826,239.737808 357.983826,232.975433 357.983826,226.395050 
	C349.306610,226.395050 341.255066,226.395050 333.335999,226.395050 
	C333.335999,254.724594 333.335999,282.654785 333.335999,310.702209 
	C341.631104,310.702209 349.681671,310.702209 357.983826,310.702209 
	C357.983826,289.434509 357.983826,268.467316 357.983826,246.500183 
M21.373680,256.860748 
	C20.656256,258.779114 19.938831,260.697510 19.159462,262.781525 
	C23.858782,264.417267 28.376888,265.989929 33.028500,267.609070 
	C35.156933,262.508331 37.054749,257.960236 39.004356,253.288055 
	C34.244236,251.594803 29.875217,250.040680 25.122660,248.350128 
	C23.942757,251.136917 22.869904,253.670883 21.373680,256.860748 
M126.246620,287.525208 
	C126.518875,291.975952 126.736679,296.431366 127.119972,300.872528 
	C127.179909,301.566956 127.855736,302.564026 128.479599,302.796570 
	C132.696777,304.368561 136.976639,305.772461 141.713715,307.394196 
	C141.522781,306.308624 141.460999,305.882446 141.370529,305.462463 
	C141.266159,304.978088 141.020096,304.495575 141.034943,304.018433 
	C141.337204,294.299896 136.624130,288.894897 126.246620,287.525208 
M69.480347,194.822540 
	C68.493805,194.025391 67.507256,193.228241 66.333542,192.279861 
	C63.380589,195.380325 60.588661,198.311722 57.682396,201.363159 
	C61.080399,204.196732 63.978107,206.613129 67.002769,209.135376 
	C69.805092,205.928024 72.487556,202.857880 75.337807,199.595673 
	C73.401917,197.991241 71.747314,196.619965 69.480347,194.822540 
M131.019485,244.766876 
	C130.185287,247.761108 129.243134,250.731461 128.572617,253.761902 
	C128.321411,254.897217 128.224899,256.677643 128.878586,257.295227 
	C131.533051,259.803009 134.506287,261.973389 137.442001,264.332458 
	C138.887161,256.078735 142.485672,247.668762 131.019485,244.766876 
M154.021042,222.603912 
	C155.367126,221.166031 156.713211,219.728134 158.152313,218.190872 
	C156.243439,215.400131 154.434784,212.755905 152.598221,210.070877 
	C143.964813,218.747299 143.516647,216.689346 151.192215,226.239456 
	C152.030411,225.188553 152.821487,224.196716 154.021042,222.603912 
M111.663376,169.003723 
	C114.561569,167.375885 117.459770,165.748032 120.638840,163.962433 
	C118.648453,160.927719 116.983185,158.388702 115.226494,155.710297 
	C111.968338,157.544495 109.027977,159.199799 105.886345,160.968414 
	C107.780220,163.759171 109.417114,166.171249 111.663376,169.003723 
M213.962219,155.814240 
	C214.085632,163.378571 221.512344,159.735947 224.357880,163.806381 
	C226.584076,154.167282 226.489136,154.065704 213.989548,151.573334 
	C213.989548,152.757538 213.989548,153.901306 213.962219,155.814240 
M182.390610,192.960632 
	C179.992905,193.820419 177.595200,194.680191 174.996094,195.612183 
	C176.102249,198.690811 177.052170,201.334610 177.997589,203.965927 
	C181.638168,202.379623 184.868820,200.971939 188.391663,199.436935 
	C187.540924,197.229279 186.972946,195.189896 185.948318,193.413971 
	C185.606003,192.820663 184.096405,192.900833 182.390610,192.960632 
M218.373886,189.031174 
	C216.944687,189.031174 215.515503,189.031174 214.000351,189.031174 
	C213.617935,191.689575 213.300323,193.897446 212.922516,196.523743 
	C215.333588,196.718475 217.112671,196.837402 218.886246,197.012146 
	C220.777435,197.198486 222.663406,197.437622 224.813248,197.683655 
	C225.085724,195.313095 225.358047,192.943970 225.629807,190.579712 
	C223.305939,190.041061 221.270309,189.569229 218.373886,189.031174 
M161.840195,151.962433 
	C164.550720,151.739639 167.261246,151.516830 169.981323,151.293243 
	C168.708801,142.812683 166.677109,142.020615 156.025879,146.089050 
	C157.807983,148.220001 159.385391,150.106171 161.840195,151.962433 
z"/>
<path fill="#FFFEFE" opacity="1.000000" stroke="none" 
	d="
M189.304367,157.775787 
	C203.211731,159.406952 215.838409,163.938004 228.115250,169.374832 
	C250.474625,179.276688 270.356171,193.049591 288.670288,209.161728 
	C289.539886,209.926758 290.494446,210.595215 291.439392,211.331970 
	C288.778839,215.650620 286.225739,214.914505 283.177277,212.699677 
	C266.598633,200.654633 248.705750,191.311584 228.638931,186.493301 
	C184.188705,175.820282 136.318802,199.596695 124.041985,249.195694 
	C119.384209,268.013367 118.509315,287.024475 121.879272,306.173492 
	C121.993828,306.824432 121.978386,307.500793 121.993591,308.165985 
	C122.011826,308.964050 121.997887,309.762787 121.997887,310.778259 
	C90.630959,310.778259 59.551262,310.778259 27.077383,310.778259 
	C29.301876,301.750732 31.045582,293.003967 33.626781,284.511810 
	C41.429440,258.840973 53.013996,234.944321 69.942451,214.061157 
	C89.785728,189.582291 113.125000,169.445999 143.956238,159.853043 
	C156.365921,155.991837 169.076004,154.684067 182.019272,156.950089 
	C184.280411,157.345947 186.603363,157.388718 189.304367,157.775787 
z"/>
<path fill="#FFFFFF" opacity="1.000000" stroke="none" 
	d="
M226.726501,288.264618 
	C234.220322,295.631531 241.462814,302.748779 249.859619,311.000366 
	C243.446548,311.000366 238.349304,310.385071 233.454620,311.119537 
	C220.484161,313.065887 210.284302,309.280640 202.734406,298.351013 
	C200.910873,295.711182 198.255295,293.646118 195.176239,290.490662 
	C195.176239,298.011017 195.176239,304.239960 195.176239,310.729309 
	C187.409714,310.729309 179.999741,310.729309 172.293274,310.729309 
	C172.293274,282.557251 172.293274,254.366074 172.293274,225.999115 
	C188.361526,225.999115 204.333511,225.290405 220.203354,226.257782 
	C230.149429,226.864059 242.586182,235.619339 243.249664,252.906784 
	C243.908600,270.075745 237.867706,280.196045 223.035995,284.347168 
	C224.247177,285.638824 225.361176,286.826874 226.726501,288.264618 
M197.745026,246.990204 
	C196.876862,247.477798 195.268356,247.943863 195.253448,248.456284 
	C195.077667,254.493973 195.140503,260.538605 195.140503,266.794922 
	C201.039780,266.794922 206.165314,266.893616 211.285217,266.766266 
	C216.111694,266.646210 219.043961,262.719910 219.011124,256.735626 
	C218.977020,250.519913 216.235123,247.084900 211.129486,247.002365 
	C206.989166,246.935410 202.846878,246.988785 197.745026,246.990204 
z"/>
<path fill="#FFFEFE" opacity="1.000000" stroke="none" 
	d="
M278.000488,307.836334 
	C277.211853,309.210632 276.446594,310.854553 275.631683,310.879578 
	C268.843384,311.087860 262.045868,310.997803 254.707077,310.997803 
	C254.707077,309.396301 254.707092,308.131561 254.707092,306.866821 
	C254.707214,288.060211 254.621475,269.253052 254.736343,250.447128 
	C254.818680,236.968735 261.462952,227.691360 273.956177,226.434479 
	C284.580780,225.365601 295.556274,225.902451 306.179565,227.264679 
	C315.629822,228.476486 322.673920,237.136047 322.846283,246.726852 
	C323.228424,267.984955 322.965332,289.254669 322.965332,310.759338 
	C315.252380,310.759338 307.859467,310.759338 300.014008,310.759338 
	C300.014008,305.910645 300.014008,301.170166 300.014008,296.239929 
	C292.629761,296.239929 285.690247,296.239929 278.000824,296.239929 
	C278.000824,299.871094 278.000824,303.613342 278.000488,307.836334 
M299.916473,271.245728 
	C299.943787,264.937195 299.925018,258.627991 300.017853,252.320435 
	C300.064362,249.160233 298.793427,247.078629 295.538147,246.951950 
	C291.247681,246.784988 286.865845,246.473511 282.684204,247.178543 
	C280.913788,247.477066 278.358246,250.106888 278.218018,251.843323 
	C277.688965,258.395264 278.005524,265.015503 278.005524,271.918671 
	C285.366913,271.918671 292.297516,271.918671 299.916473,271.245728 
z"/>
<path fill="#FFFDFD" opacity="1.000000" stroke="none" 
	d="
M458.105469,257.996948 
	C464.092834,258.006775 469.704834,257.310059 475.061493,258.181976 
	C484.549866,259.726471 492.730347,265.787689 494.171021,277.196716 
	C495.471252,287.493805 495.914215,297.816010 487.080688,305.060699 
	C483.283447,308.174927 477.762360,310.452271 472.884735,310.739868 
	C459.802185,311.511230 446.644196,311.003021 433.256714,311.003021 
	C433.256714,303.771393 433.256714,296.855042 433.256714,289.500183 
	C446.217407,289.500183 459.151306,289.500183 472.465942,289.500183 
	C472.465942,285.883392 472.465942,282.693298 472.465942,279.003052 
	C466.812561,279.003052 461.185028,278.802460 455.576752,279.045685 
	C444.602295,279.521606 430.788818,270.532288 431.799408,255.534134 
	C432.345245,247.433350 431.046448,238.840347 438.354462,233.186768 
	C442.375031,230.076385 447.374512,226.724869 452.143127,226.378311 
	C465.022339,225.442261 478.014282,226.057907 491.123413,226.057907 
	C491.123413,233.459656 491.123413,240.416977 491.123413,247.860016 
	C478.561432,247.860016 465.986450,247.860016 453.159790,247.860016 
	C453.159790,251.398071 453.159790,254.458832 453.159790,257.996948 
	C454.710327,257.996948 456.162689,257.996948 458.105469,257.996948 
z"/>
<path fill="#FFFFFF" opacity="1.000000" stroke="none" 
	d="
M421.819427,289.000671 
	C423.202026,289.952606 424.839996,290.875397 424.878387,291.860504 
	C425.117645,298.002716 424.999084,304.158844 424.999084,310.654724 
	C406.131226,310.654724 387.406036,310.654724 368.320862,310.654724 
	C368.320862,282.814270 368.320862,254.765717 368.320862,226.358292 
	C375.802795,226.358292 383.541870,226.358292 391.704529,226.358292 
	C391.704529,246.839508 391.704529,267.563141 391.704529,289.000305 
	C401.850281,289.000305 411.592804,289.000305 421.819427,289.000671 
z"/>
<path fill="#FFFDFD" opacity="1.000000" stroke="none" 
	d="
M357.983826,247.000153 
	C357.983826,268.467316 357.983826,289.434509 357.983826,310.702209 
	C349.681671,310.702209 341.631104,310.702209 333.335999,310.702209 
	C333.335999,282.654785 333.335999,254.724594 333.335999,226.395050 
	C341.255066,226.395050 349.306610,226.395050 357.983826,226.395050 
	C357.983826,232.975433 357.983826,239.737808 357.983826,247.000153 
z"/>
<path fill="#FEFBFB" opacity="1.000000" stroke="none" 
	d="
M21.585365,256.532776 
	C22.869904,253.670883 23.942757,251.136917 25.122660,248.350128 
	C29.875217,250.040680 34.244236,251.594803 39.004356,253.288055 
	C37.054749,257.960236 35.156933,262.508331 33.028500,267.609070 
	C28.376888,265.989929 23.858782,264.417267 19.159462,262.781525 
	C19.938831,260.697510 20.656256,258.779114 21.585365,256.532776 
z"/>
<path fill="#FEFBFB" opacity="1.000000" stroke="none" 
	d="
M126.638306,287.591736 
	C136.624130,288.894897 141.337204,294.299896 141.034943,304.018433 
	C141.020096,304.495575 141.266159,304.978088 141.370529,305.462463 
	C141.460999,305.882446 141.522781,306.308624 141.713715,307.394196 
	C136.976639,305.772461 132.696777,304.368561 128.479599,302.796570 
	C127.855736,302.564026 127.179909,301.566956 127.119972,300.872528 
	C126.736679,296.431366 126.518875,291.975952 126.638306,287.591736 
z"/>
<path fill="#FEFBFB" opacity="1.000000" stroke="none" 
	d="
M69.786530,195.035614 
	C71.747314,196.619965 73.401917,197.991241 75.337807,199.595673 
	C72.487556,202.857880 69.805092,205.928024 67.002769,209.135376 
	C63.978107,206.613129 61.080399,204.196732 57.682396,201.363159 
	C60.588661,198.311722 63.380589,195.380325 66.333542,192.279861 
	C67.507256,193.228241 68.493805,194.025391 69.786530,195.035614 
z"/>
<path fill="#FEFBFB" opacity="1.000000" stroke="none" 
	d="
M131.195221,244.425354 
	C142.485672,247.668762 138.887161,256.078735 137.442001,264.332458 
	C134.506287,261.973389 131.533051,259.803009 128.878586,257.295227 
	C128.224899,256.677643 128.321411,254.897217 128.572617,253.761902 
	C129.243134,250.731461 130.185287,247.761108 131.195221,244.425354 
z"/>
<path fill="#FEFBFB" opacity="1.000000" stroke="none" 
	d="
M153.816803,222.904388 
	C152.821487,224.196716 152.030411,225.188553 151.192215,226.239456 
	C143.516647,216.689346 143.964813,218.747299 152.598221,210.070877 
	C154.434784,212.755905 156.243439,215.400131 158.152313,218.190872 
	C156.713211,219.728134 155.367126,221.166031 153.816803,222.904388 
z"/>
<path fill="#FEFBFB" opacity="1.000000" stroke="none" 
	d="
M111.358688,168.793518 
	C109.417114,166.171249 107.780220,163.759171 105.886345,160.968414 
	C109.027977,159.199799 111.968338,157.544495 115.226494,155.710297 
	C116.983185,158.388702 118.648453,160.927719 120.638840,163.962433 
	C117.459770,165.748032 114.561569,167.375885 111.358688,168.793518 
z"/>
<path fill="#FEFBFB" opacity="1.000000" stroke="none" 
	d="
M213.975891,155.429657 
	C213.989548,153.901306 213.989548,152.757538 213.989548,151.573334 
	C226.489136,154.065704 226.584076,154.167282 224.357880,163.806381 
	C221.512344,159.735947 214.085632,163.378571 213.975891,155.429657 
z"/>
<path fill="#FEFBFB" opacity="1.000000" stroke="none" 
	d="
M182.755508,192.816879 
	C184.096405,192.900833 185.606003,192.820663 185.948318,193.413971 
	C186.972946,195.189896 187.540924,197.229279 188.391663,199.436935 
	C184.868820,200.971939 181.638168,202.379623 177.997589,203.965927 
	C177.052170,201.334610 176.102249,198.690811 174.996094,195.612183 
	C177.595200,194.680191 179.992905,193.820419 182.755508,192.816879 
z"/>
<path fill="#FEFBFB" opacity="1.000000" stroke="none" 
	d="
M218.804276,189.064270 
	C221.270309,189.569229 223.305939,190.041061 225.629807,190.579712 
	C225.358047,192.943970 225.085724,195.313095 224.813248,197.683655 
	C222.663406,197.437622 220.777435,197.198486 218.886246,197.012146 
	C217.112671,196.837402 215.333588,196.718475 212.922516,196.523743 
	C213.300323,193.897446 213.617935,191.689575 214.000351,189.031174 
	C215.515503,189.031174 216.944687,189.031174 218.804276,189.064270 
z"/>
<path fill="#FEFBFB" opacity="1.000000" stroke="none" 
	d="
M161.401489,151.977386 
	C159.385391,150.106171 157.807983,148.220001 156.025879,146.089050 
	C166.677109,142.020615 168.708801,142.812683 169.981323,151.293243 
	C167.261246,151.516830 164.550720,151.739639 161.401489,151.977386 
z"/>
<path fill="#CD0606" opacity="1.000000" stroke="none" 
	d="
M198.225250,246.989502 
	C202.846878,246.988785 206.989166,246.935410 211.129486,247.002365 
	C216.235123,247.084900 218.977020,250.519913 219.011124,256.735626 
	C219.043961,262.719910 216.111694,266.646210 211.285217,266.766266 
	C206.165314,266.893616 201.039780,266.794922 195.140503,266.794922 
	C195.140503,260.538605 195.077667,254.493973 195.253448,248.456284 
	C195.268356,247.943863 196.876862,247.477798 198.225250,246.989502 
z"/>
<path fill="#CC0000" opacity="1.000000" stroke="none" 
	d="
M299.572296,271.582214 
	C292.297516,271.918671 285.366913,271.918671 278.005524,271.918671 
	C278.005524,265.015503 277.688965,258.395264 278.218018,251.843323 
	C278.358246,250.106888 280.913788,247.477066 282.684204,247.178543 
	C286.865845,246.473511 291.247681,246.784988 295.538147,246.951950 
	C298.793427,247.078629 300.064362,249.160233 300.017853,252.320435 
	C299.925018,258.627991 299.943787,264.937195 299.572296,271.582214 
z"/>
</svg>